# xmcd
#
# Track frame offsets:
#	150
#	11375
#	29699
#	43301
#	56980
#	78314
#	94760
#	106788
#	120503
#	128102
#	134411
#	147811
#	155587
#	165674
#	183318
#	193638
#	210123
#	264913
#
# Disc length: 3912 seconds
#
# Revision: 1
# Processed by: cddbd v1.5.1PL0 Copyright (c) Steve Scherf et al.
# Submitted via: audiograbber 1.83.01
#
DISCID=f10f4612
DTITLE=Mike Simonetti and Dan Selzer - Crazy Rhythms
DYEAR=1900
DGENRE=crazy rhythms
TTITLE0=Giorgio Moroder - Night Drive (Reprise)
TTITLE1=Klein and M.B.O. - The Big Apple
TTITLE2=Wide Boy Awake - Slang Teacher
TTITLE3=Massimo Barsotti D.J. - Whole Lotta Love
TTITLE4=Amin-Peck - Girls on Me
TTITLE5=Vortex - Black Box Disco
TTITLE6=Man Friday  - Love Heartache (A "Tom Moulton" Mix)
TTITLE7=War - Galaxy
TTITLE8=Macho - I'm A Man
TTITLE9=Gazebo - Masterpiece
TTITLE10=Musicology - obsessed
TTITLE11=Tyree - Acid Crash
TTITLE12=Belle Epoque - Bamalama
TTITLE13=Ram Jam - Black Betty (Ben Lebrand Mix)
TTITLE14=Delta 5 - Try
TTITLE15=Salsoul Orchestra - Magic Bird of Fire (Walter Gibbons Mix)
TTITLE16=Dinosaur - Kiss Me Again
TTITLE17=The Feelies - Crazy Rhythms
EXTD=
EXTT0=
EXTT1=
EXTT2=
EXTT3=
EXTT4=
EXTT5=
EXTT6=
EXTT7=
EXTT8=
EXTT9=
EXTT10=
EXTT11=
EXTT12=
EXTT13=
EXTT14=
EXTT15=
EXTT16=
EXTT17=
PLAYORDER=
